<svg xmlns="http://www.w3.org/2000/svg" viewBox="0 0 289 287.54"><defs><style>.cls-1{fill:#797979;}.cls-2{fill:#7fd8ca;}.cls-3{fill:#ffdcc4;}.cls-4{fill:#fadc37;}.cls-5{fill:#303030;}.cls-6{fill:#f79a7f;}.cls-7{fill:#292929;}.cls-8{fill:#724433;}.cls-9{fill:#dbdbdb;}.cls-10{fill:#4c4c4c;}</style></defs><g id="Layer_2" data-name="Layer 2"><g id="object"><path class="cls-1" d="M270.65,74.05H18.35a4.65,4.65,0,0,0-4.64,4.65V259.05H275.29V78.7A4.65,4.65,0,0,0,270.65,74.05Z"/><path class="cls-2" d="M258.65,86.05H30.35a4.65,4.65,0,0,0-4.64,4.65V247.05H263.29V90.7A4.65,4.65,0,0,0,258.65,86.05Z"/><path class="cls-3" d="M199.78,124.9c-23.1-9.57-36.91-28.18-36.91-28.18-33.49,27.16-73.76,28.18-73.76,28.18S70,185.52,143.88,186.05H145C218.92,185.52,199.78,124.9,199.78,124.9Z"/><path class="cls-4" d="M69.66,100.1a5,5,0,1,0-10.09,0v11.45H69.66Z"/><path class="cls-5" d="M144.5,85.12l-85-37.41a5.07,5.07,0,0,1,0-9.27l83-34.51a5.08,5.08,0,0,1,4.08,0l83,34.51a5.07,5.07,0,0,1,0,9.27Z"/><circle class="cls-6" cx="114.47" cy="146.55" r="9.87" transform="translate(-70.1 123.86) rotate(-45)"/><circle class="cls-6" cx="177.78" cy="146.55" r="9.87" transform="translate(-5.84 285.72) rotate(-76.66)"/><path class="cls-5" d="M144.44,188.08a63.62,63.62,0,0,0-63.31,57.36l126.67.44A63.62,63.62,0,0,0,144.44,188.08Z"/><path class="cls-7" d="M123.24,126.22c0,4.49-2.47,8.13-5.52,8.13s-5.51-3.64-5.51-8.13,2.47-8.13,5.51-8.13S123.24,121.73,123.24,126.22Z"/><path class="cls-7" d="M176.68,126.22c0,4.49-2.47,8.13-5.52,8.13s-5.52-3.64-5.52-8.13,2.47-8.13,5.52-8.13S176.68,121.73,176.68,126.22Z"/><path class="cls-3" d="M74.46,123.7c-7,1.57-11.15,9.82-9.21,18.42s9.19,14.28,16.2,12.7A11,11,0,0,0,86.7,152l.35-23.18C83.81,124.77,79.08,122.66,74.46,123.7Z"/><path class="cls-3" d="M214.54,123.7c-4.62-1-9.35,1.07-12.59,5.09L202.3,152a11,11,0,0,0,5.25,2.85c7,1.58,14.27-4.11,16.2-12.7S221.56,125.27,214.54,123.7Z"/><path class="cls-8" d="M210.34,123.34a58,58,0,0,0,1.08-11.17A67,67,0,1,0,78.24,122.4l10.87,2.5s50.7-5.6,73.76-28.18c0,0,17.31,22.27,44.93,32Z"/><path class="cls-7" d="M144.44,156.1c-7.92,0-13.9-3.23-13.9-7.52a2,2,0,0,1,4,0c0,1.24,3.76,3.52,9.9,3.52s9.91-2.28,9.91-3.52a2,2,0,0,1,4,0C158.35,152.87,152.37,156.1,144.44,156.1Z"/><path class="cls-1" d="M3.5,259.05h282a0,0,0,0,1,0,0V269.3A14.75,14.75,0,0,1,270.75,284H18.25A14.75,14.75,0,0,1,3.5,269.3V259.05A0,0,0,0,1,3.5,259.05Z"/><path class="cls-9" d="M117.88,259.05h53.24a0,0,0,0,1,0,0v5.08a7.41,7.41,0,0,1-7.41,7.41H125.29a7.41,7.41,0,0,1-7.41-7.41v-5.08A0,0,0,0,1,117.88,259.05Z"/><path class="cls-10" d="M207.29,73.57V58L154.44,43.74a38.3,38.3,0,0,0-19.88,0L81.71,58V73.57l63.36,14.17Z"/><path class="cls-4" d="M144.5,80.64c-25.84-17.8-62.79-10.43-62.79-10.43v11.1s37-6.5,62.79,11.29c25.84-17.79,62.79-11.29,62.79-11.29V70.21S170.34,62.84,144.5,80.64Z"/><path class="cls-10" d="M186.67,202.76c-24.11-17.3-41.6-16.71-41.6-16.71-21.38.56-37.94,12.23-44.33,17.48a2,2,0,0,0,.7,3.52c8.45,2.6,30,10.74,43,28.95,12.3-17.18,32.17-25.39,41.48-28.46A2.72,2.72,0,0,0,186.67,202.76Z"/><path class="cls-10" d="M144.5,236.05l0-.05,0,.05Z"/><path class="cls-4" d="M144.5,224.05l0-.05,0,.05Z"/><path class="cls-4" d="M171.12,193.55c-9.35,3.84-19.7,9.73-26.66,19.45-6.77-9.46-16.91-15.39-26.28-19.27l-10.11,5.77c11.29,4.09,27.05,11.45,36.39,24.5,9.48-13.23,25.21-20.55,36.2-24.61Z"/><path class="cls-7" d="M285.5,255.55h-6.71V78.7a8.16,8.16,0,0,0-8.14-8.15H210.79V59.78l20.14-8.86a8.56,8.56,0,0,0-.07-15.71L148,.73a8.5,8.5,0,0,0-6.83,0L58.07,35.24a8.56,8.56,0,0,0,0,15.68l3,1.34V70.55H18.35a8.16,8.16,0,0,0-8.14,8.15V255.55H3.5a3.5,3.5,0,0,0-3.5,3.5V269.3a18.27,18.27,0,0,0,18.25,18.24h252.5A18.27,18.27,0,0,0,289,269.3V259.05A3.5,3.5,0,0,0,285.5,255.55ZM78.21,59.78V70.55H68.11V55.34Zm96.84,139.67c-13.51,5.64-23.78,12.76-30.59,21.24-6.94-8.63-17.48-15.82-31.42-21.43,1.77-1,3.71-2.08,5.79-3.07,10.72,4.65,18.8,10.7,24,18a2,2,0,0,0,3.25,0c5.18-7.23,12.83-13,23.31-17.69C171.21,197.35,173.1,198.33,175.05,199.45Zm-66.25,2.47c15.6,5.84,27,13.56,33.81,22.94,0,0,0,.08,0,.11a2,2,0,0,0,1.77,1.08h.08a2,2,0,0,0,1.77-1.12h0c6.74-9.28,17.86-17,33.08-22.9,1.31.84,2.66,1.73,4,2.69-10.16,3.51-26.89,11.1-38.91,25.56-12.41-14.91-30-22.51-39.36-25.72C106.16,203.75,107.41,202.85,108.8,201.92Zm35.66,7.78c-5-6.16-12-11.41-20.71-15.66a63.31,63.31,0,0,1,21.42-4.49c.12,0,7.63-.09,19.41,4.76C156,198.52,149.39,203.6,144.46,209.7Zm.53-27.15h0l-.69,0c-.13,0-.25,0-.38,0-22.53-.16-38.18-6-46.52-17.47-9.65-13.23-6.92-30.64-5.52-36.83,9.42-.7,41.68-4.67,70.47-26.65,4.77,5.57,16.83,18.09,34.52,25.85,1.3,5.34,4.77,23.78-5.33,37.63C183.18,176.51,167.52,182.39,145,182.55ZM75.22,127.11c3.13-.7,6.47.7,9,3.75A62.36,62.36,0,0,0,84,149.7a7.6,7.6,0,0,1-3.29,1.71,8.49,8.49,0,0,1-7.09-1.88,15.1,15.1,0,0,1-4-17.69A8.46,8.46,0,0,1,75.22,127.11ZM204.7,131c2.53-3.12,5.92-4.56,9.08-3.85a8.48,8.48,0,0,1,5.6,4.73,15.1,15.1,0,0,1-4,17.69,8.45,8.45,0,0,1-7.09,1.88,7.55,7.55,0,0,1-3.38-1.79A61.85,61.85,0,0,0,204.7,131Zm2.52-10.14a16.68,16.68,0,0,0-4.4,2.34,3.53,3.53,0,0,0-1.7-1.49c-21.87-9.07-35.31-26.86-35.44-27a3.51,3.51,0,0,0-5-.63C128.55,120.05,89.41,121.39,89,121.4a3.5,3.5,0,0,0-2.9,1.71,16.73,16.73,0,0,0-4.57-2.37,64.48,64.48,0,0,1-.58-8.57,63.72,63.72,0,0,1,6.51-28c10.77-1,36.2-1.61,55,11.36a3.55,3.55,0,0,0,4,0c18.71-12.89,44-12.34,54.89-11.37a62.85,62.85,0,0,1,6.54,28.05A51.61,51.61,0,0,1,207.22,120.82Zm-3.43-47.25V77.3c-10.3-1.14-37.71-2.54-59.29,11.11C123.45,75.09,96.85,76.1,86,77.22a3,3,0,0,0-.79-.07V71.69c9.29-1.26,37.56-3.59,58.16,10.59a2,2,0,0,0,2.26,0c20.58-14.17,48.87-11.84,58.16-10.59Zm0-12.92v7c-10.14-1.36-37.86-3.43-59.29,10.6-21.43-14-49.15-12-59.29-10.6v-7l50.26-13.53a34.79,34.79,0,0,1,18.06,0ZM78.21,77.55v3.76A3.5,3.5,0,0,0,79,83.55H68.11v-6ZM61.57,100.1a3,3,0,1,1,6.09,0v9.45H61.57Zm-.33-6.18a7,7,0,0,0-3.67,6.18v11.45a2,2,0,0,0,2,2H69.66a2,2,0,0,0,2-2V100.1A7,7,0,0,0,68,93.92a3.58,3.58,0,0,0,.12-.87v-4.5H78a70.67,70.67,0,0,0-3.62,31.6l-.73.13a15.32,15.32,0,0,0-10.33,8.43A22.09,22.09,0,0,0,69.28,155a15.87,15.87,0,0,0,9.78,3.55,14.78,14.78,0,0,0,3.16-.35A14.5,14.5,0,0,0,85.64,157a41.49,41.49,0,0,0,6,12.18c6.55,9,16.69,15.05,30.24,18.09a86.36,86.36,0,0,0-23.41,13.58,5.53,5.53,0,0,0-2,3.9,67.1,67.1,0,0,0-18.81,39.82H28.21V90.7a2.15,2.15,0,0,1,2.14-2.15H61.11v4.5A3.16,3.16,0,0,0,61.24,93.92Zm39.44,116.56c8.36,2.61,28.29,10.3,40.57,27a3.37,3.37,0,0,0,1.14,1.38,3.5,3.5,0,0,0,2,.65h0a3.53,3.53,0,0,0,2.08-.65,3.45,3.45,0,0,0,1.14-1.38c11.95-16.28,31.46-24.05,39.35-26.65a7.41,7.41,0,0,0,1.07-.48,60.13,60.13,0,0,1,16,34.16H84.76A60,60,0,0,1,100.68,210.48Zm110.49,34.07a67.05,67.05,0,0,0-19.33-40.37,3.84,3.84,0,0,0-.69-.53,6.2,6.2,0,0,0-2.44-3.74,106.44,106.44,0,0,0-22.43-12.5c13.9-3,24.26-9.09,30.93-18.25a41.73,41.73,0,0,0,6.06-12.22,14.2,14.2,0,0,0,6.67,1.65,15.87,15.87,0,0,0,9.78-3.55,22.09,22.09,0,0,0,5.92-26.33,15.32,15.32,0,0,0-10.33-8.43c-.3-.07-.61-.12-.91-.17a59.1,59.1,0,0,0,.52-7.94,71,71,0,0,0-4.07-23.62h47.8a2.15,2.15,0,0,1,2.14,2.15V244.55ZM60,43.08a1.49,1.49,0,0,1,.87-1.41L143.87,7.13a1.67,1.67,0,0,1,1.33,0l82.91,34.48a1.57,1.57,0,0,1,0,2.87l-21.76,9.58-51-13.73a41.81,41.81,0,0,0-21.7,0l-51,13.73L66,46.75h0l-5.08-2.24A1.51,1.51,0,0,1,60,43.08ZM17.21,78.7a1.15,1.15,0,0,1,1.14-1.15H61.11v6H30.35a7.15,7.15,0,0,0-7.14,7.15V247.05a2.5,2.5,0,0,0,2.5,2.5H263.29a2.5,2.5,0,0,0,2.5-2.5V90.7a7.15,7.15,0,0,0-7.14-7.15H210a3.5,3.5,0,0,0,.83-2.24V77.55h59.86a1.15,1.15,0,0,1,1.14,1.15V255.55H17.21ZM120.38,262.55h48.24v1.58a4.92,4.92,0,0,1-4.91,4.92H125.29a4.92,4.92,0,0,1-4.91-4.92ZM282,269.3a11.26,11.26,0,0,1-11.25,11.24H18.25A11.25,11.25,0,0,1,7,269.3v-6.75H115.38v1.58a9.93,9.93,0,0,0,9.91,9.92h38.42a9.93,9.93,0,0,0,9.91-9.92v-1.58H282Z"/></g></g></svg>