<svg xmlns="http://www.w3.org/2000/svg" viewBox="0 0 183.09 289.32"><defs><style>.cls-1{fill:#724433;}.cls-2{fill:#ffdcc4;}.cls-3{fill:#fadc37;}.cls-4{fill:#303030;}.cls-5{fill:#f79a7f;}.cls-6{fill:#292929;}.cls-7{fill:#4c4c4c;}.cls-8{fill:#797979;}.cls-9{fill:#dbdbdb;}</style></defs><g id="Layer_2" data-name="Layer 2"><g id="object"><path class="cls-1" d="M28.5,141v36.25a13.11,13.11,0,0,0,3.21,8.72c3.64,4.1,11.34,8.79,27.54,9h66.46c16.21-.24,23.91-4.93,27.54-9a13.12,13.12,0,0,0,3.22-8.72V142Z"/><path class="cls-1" d="M91.49,45.19a67,67,0,0,0-66.2,77.21l132.09.94a58,58,0,0,0,1.09-11.17A67,67,0,0,0,91.49,45.19Z"/><path class="cls-2" d="M109.92,96.72c-33.5,27.16-73.76,28.18-73.76,28.18S17,185.52,90.92,186.05h1.14c73.91-.53,54.77-61.15,54.77-61.15C123.73,115.33,109.92,96.72,109.92,96.72Z"/><path class="cls-2" d="M21.5,123.7c-7,1.57-11.14,9.82-9.21,18.42s9.19,14.28,16.21,12.7A11,11,0,0,0,33.75,152l.35-23.18C30.86,124.77,26.13,122.66,21.5,123.7Z"/><path class="cls-2" d="M161.59,123.7c-4.63-1-9.35,1.07-12.59,5.09l.34,23.18a11,11,0,0,0,5.25,2.85c7,1.58,14.28-4.11,16.21-12.7S168.61,125.27,161.59,123.7Z"/><path class="cls-3" d="M16.7,100.1a5,5,0,1,0-10.08,0v11.45H16.7Z"/><path class="cls-4" d="M91.55,85.12l-85-37.41a5.07,5.07,0,0,1,0-9.27l83-34.51a5.08,5.08,0,0,1,4.08,0l83,34.51a5.07,5.07,0,0,1,0,9.27Z"/><circle class="cls-5" cx="61.51" cy="146.55" r="9.87" transform="translate(-93 183.79) rotate(-80.78)"/><circle class="cls-5" cx="124.82" cy="146.55" r="9.87" transform="translate(-67.07 131.19) rotate(-45)"/><path class="cls-4" d="M160.71,229.37A78.67,78.67,0,0,0,38.49,208.61C22.13,223.53,13.2,244.94,13.2,267.08v18.74H169.82V266.49A77.94,77.94,0,0,0,160.71,229.37Z"/><path class="cls-6" d="M70.29,126.22c0,4.49-2.47,8.13-5.52,8.13s-5.52-3.64-5.52-8.13,2.47-8.13,5.52-8.13S70.29,121.73,70.29,126.22Z"/><ellipse class="cls-6" cx="118.21" cy="126.22" rx="5.52" ry="8.13"/><path class="cls-7" d="M154.33,73.57V58L101.49,43.74a38.33,38.33,0,0,0-19.89,0L28.76,58V73.57L92.12,87.74Z"/><path class="cls-6" d="M91.49,156.1c-7.93,0-13.91-3.23-13.91-7.52a2,2,0,0,1,4,0c0,1.24,3.76,3.52,9.91,3.52s9.91-2.28,9.91-3.52a2,2,0,0,1,4,0C105.4,152.87,99.42,156.1,91.49,156.1Z"/><path class="cls-8" d="M27.21,275.38H155a0,0,0,0,1,0,0v.74a9.69,9.69,0,0,1-9.69,9.69H36.91a9.69,9.69,0,0,1-9.69-9.69v-.74A0,0,0,0,1,27.21,275.38Z"/><path class="cls-8" d="M145.62,198.12h-109a5.1,5.1,0,0,0-5.11,5.1v72.16H150.72V203.22A5.1,5.1,0,0,0,145.62,198.12Z"/><circle class="cls-9" cx="91.45" cy="242.42" r="10.03"/><path class="cls-9" d="M81.66,218.74a7.08,7.08,0,0,0,8.68,8.68,7.08,7.08,0,0,0-8.68-8.68Z"/><path class="cls-3" d="M91.55,80.64C65.71,62.84,28.76,70.21,28.76,70.21v11.1s36.95-6.5,62.79,11.29c25.83-17.79,62.78-11.29,62.78-11.29V70.21S117.38,62.84,91.55,80.64Z"/><path class="cls-6" d="M177.91,35.21,95,.73a8.5,8.5,0,0,0-6.83,0l-83,34.54a8.56,8.56,0,0,0,0,15.68l3,1.34V93.05a3.58,3.58,0,0,0,.12.87,7.05,7.05,0,0,0-3.66,6.18v11.45a2,2,0,0,0,2,2H16.7a2,2,0,0,0,2-2V100.1A7.05,7.05,0,0,0,15,93.92a3.58,3.58,0,0,0,.12-.87V55.34l10.1,4.44V81.31A3.51,3.51,0,0,0,26.5,84l.3.19a70.64,70.64,0,0,0-5.34,36l-.73.13a15.3,15.3,0,0,0-10.32,8.43,21.25,21.25,0,0,0-1.53,14.17c2,8.79,8.74,15,16.12,15.64v18.7a16.57,16.57,0,0,0,4.09,11,25.74,25.74,0,0,0,9.16,6.36H36.58a8.61,8.61,0,0,0-8.61,8.6v11.49A83.32,83.32,0,0,0,9.7,267.08v18.74a3.5,3.5,0,0,0,3.5,3.5H169.82a3.5,3.5,0,0,0,3.5-3.5V266.49a80,80,0,0,0-18.58-52.18,3.58,3.58,0,0,0-.52-.51V203.22a8.6,8.6,0,0,0-7.64-8.54,25.78,25.78,0,0,0,9.29-6.42,16.56,16.56,0,0,0,4.1-11v-19c6.62-1.41,12.44-7.33,14.24-15.37a21.25,21.25,0,0,0-1.53-14.17,15.3,15.3,0,0,0-10.32-8.43c-.31-.07-.61-.12-.92-.17a57.4,57.4,0,0,0,.53-7.94,70.79,70.79,0,0,0-5.77-27.93,2.49,2.49,0,0,0,.38-.25,3.49,3.49,0,0,0,1.25-2.68V59.78L178,50.92a8.57,8.57,0,0,0-.06-15.71ZM14.7,109.55H8.62V100.1a3,3,0,1,1,6.08,0Zm139.56,11.27a17.11,17.11,0,0,0-4.4,2.33,3.49,3.49,0,0,0-1.69-1.48c-21.88-9.07-35.31-26.86-35.44-27a3.52,3.52,0,0,0-5-.63c-32.12,26.05-71.25,27.39-71.64,27.4a3.51,3.51,0,0,0-2.91,1.71,16.82,16.82,0,0,0-4.56-2.37,64.37,64.37,0,0,1-.59-8.57,63.58,63.58,0,0,1,6.52-28c10.77-1,36.24-1.6,55,11.35a3.53,3.53,0,0,0,4,0c18.71-12.89,44-12.34,54.89-11.37A62.69,62.69,0,0,1,155,112.17,51.55,51.55,0,0,1,154.26,120.82ZM91.48,191.58a75.58,75.58,0,0,1,21.18,3H70.31A75.51,75.51,0,0,1,91.48,191.58Zm0-9a4.73,4.73,0,0,0-.54,0c-22.53-.16-38.19-6-46.53-17.47-9.64-13.23-6.91-30.64-5.51-36.83,9.42-.7,41.68-4.67,70.46-26.65,4.78,5.57,16.84,18.09,34.53,25.86,1.31,5.31,4.8,23.68-5.31,37.58-8.33,11.46-24,17.35-46.55,17.51A4.91,4.91,0,0,0,91.49,182.59ZM150.83,77.3c-10.29-1.14-37.71-2.54-59.29,11.11C70.49,75.09,43.9,76.1,33.05,77.22a3,3,0,0,0-.79-.07V71.69c9.28-1.26,37.55-3.59,58.15,10.59a2,2,0,0,0,2.27,0c20.57-14.17,48.86-11.84,58.15-10.59V77.3Zm0-16.65v7C140.7,66.27,113,64.2,91.54,78.23c-21.43-14-49.15-12-59.28-10.6v-7L82.51,47.12a34.82,34.82,0,0,1,18.07,0ZM15.71,141.35a14.3,14.3,0,0,1,1-9.51,8.46,8.46,0,0,1,5.6-4.73c3.13-.71,6.47.7,9,3.75A62.36,62.36,0,0,0,31,149.7a7.6,7.6,0,0,1-3.29,1.71C22.6,152.55,17.21,148.05,15.71,141.35Zm18.62,42.27a9.63,9.63,0,0,1-2.33-6.4v-19.9l.68-.34a41.53,41.53,0,0,0,6.06,12.18c6.7,9.22,17.15,15.34,31.18,18.31a81.49,81.49,0,0,0-11.34,4C44,191.11,37.35,187,34.33,183.62ZM16.7,267.08A77,77,0,0,1,28,226.8v45.08h-.76a3.5,3.5,0,0,0-3.5,3.5v.75a13.06,13.06,0,0,0,1.55,6.19H16.7Zm20.21,15.24a6.19,6.19,0,0,1-5.55-3.44H150.84a6.2,6.2,0,0,1-5.55,3.44ZM157.64,231a74.78,74.78,0,0,1,8.68,35.46v15.83h-9.39a13.07,13.07,0,0,0,1.56-6.19v-.75a3.5,3.5,0,0,0-3.5-3.5h-.77V225.37C155.44,227.21,156.59,229.1,157.64,231Zm-10.42-27.81v68.66H35V203.22a1.61,1.61,0,0,1,1.61-1.6h109A1.6,1.6,0,0,1,147.22,203.22Zm3.41-19.6c-3.06,3.46-9.89,7.63-25,7.85a3.25,3.25,0,0,0-.89.14,81,81,0,0,0-11.71-4.14c14-3,24.48-9.09,31.19-18.31a41.52,41.52,0,0,0,6.07-12.22A14.84,14.84,0,0,0,153,158v19.21A9.58,9.58,0,0,1,150.63,183.62Zm15.79-51.78a14.3,14.3,0,0,1,1,9.51c-1.5,6.7-6.91,11.2-12,10.06a7.46,7.46,0,0,1-3.38-1.79,62.51,62.51,0,0,0-.23-18.66c2.53-3.12,5.91-4.56,9.07-3.85A8.46,8.46,0,0,1,166.42,131.84Zm8.74-87.33-21.77,9.58-51-13.73a41.84,41.84,0,0,0-21.71,0l-51,13.73L13,46.75h0L7.93,44.51A1.49,1.49,0,0,1,7,43.08a1.47,1.47,0,0,1,.87-1.41l83-34.54a1.67,1.67,0,0,1,1.33,0l82.92,34.48a1.57,1.57,0,0,1,0,2.87Z"/><path class="cls-6" d="M91.45,230.39a12,12,0,1,0,12,12A12,12,0,0,0,91.45,230.39Zm0,20.06a8,8,0,1,1,8-8A8,8,0,0,1,91.45,250.45Z"/><path class="cls-6" d="M88.52,229.66a8.83,8.83,0,0,0,2.33-.31,2,2,0,0,0,1.42-1.42A9.09,9.09,0,0,0,81.14,216.8a2,2,0,0,0-1.41,1.42,9.08,9.08,0,0,0,8.79,11.44ZM87.09,222a5.11,5.11,0,0,1,1.49,3.68,5.07,5.07,0,0,1-5.16-5.16A5.19,5.19,0,0,1,87.09,222Z"/></g></g></svg>