<svg xmlns="http://www.w3.org/2000/svg" viewBox="0 0 289 216.99"><defs><style>.cls-1{fill:#797979;}.cls-2{fill:#dbdbdb;}.cls-3{fill:#c63433;}.cls-4{fill:#fadc37;}.cls-5{fill:#7fd8ca;}.cls-6{fill:#303030;}.cls-7{fill:#4c4c4c;}.cls-8{fill:#292929;}</style></defs><g id="Layer_2" data-name="Layer 2"><g id="object"><path class="cls-1" d="M3.5,188.5h282a0,0,0,0,1,0,0v10.25a14.75,14.75,0,0,1-14.75,14.75H18.25A14.75,14.75,0,0,1,3.5,198.75V188.5A0,0,0,0,1,3.5,188.5Z"/><path class="cls-2" d="M117.88,188.5h53.24a0,0,0,0,1,0,0v5.08a7.41,7.41,0,0,1-7.41,7.41H125.29a7.41,7.41,0,0,1-7.41-7.41V188.5A0,0,0,0,1,117.88,188.5Z"/><path class="cls-1" d="M270.65,3.5H18.35a4.65,4.65,0,0,0-4.64,4.65V188.5H275.29V8.15A4.65,4.65,0,0,0,270.65,3.5Z"/><path class="cls-3" d="M258.65,15.5H30.35a4.65,4.65,0,0,0-4.64,4.65V176.5H263.29V20.15A4.65,4.65,0,0,0,258.65,15.5Z"/><rect class="cls-2" x="26.31" y="15.5" width="236.59" height="23.62"/><circle class="cls-3" cx="216.65" cy="27.11" r="4.05"/><circle class="cls-4" cx="232.17" cy="27.11" r="4.05"/><circle class="cls-5" cx="247.69" cy="27.11" r="4.05"/><path class="cls-4" d="M69.41,154.17a5,5,0,1,0-10.09,0v11.45H69.41Z"/><path class="cls-6" d="M144.25,139.19l-85-37.41a5.07,5.07,0,0,1,0-9.27l83-34.51a5.08,5.08,0,0,1,4.08,0l83,34.51a5.06,5.06,0,0,1,0,9.27Z"/><path class="cls-7" d="M207,127.64V112L154.19,97.81a38.3,38.3,0,0,0-19.88,0L81.46,112v15.6l63.37,14.17Z"/><path class="cls-4" d="M144.25,134.71c-25.84-17.8-62.79-10.42-62.79-10.42v11.09s37-6.5,62.79,11.29C170.09,128.88,207,135.38,207,135.38V124.29S170.09,116.91,144.25,134.71Z"/><path class="cls-8" d="M285.5,185h-6.71V8.15A8.15,8.15,0,0,0,270.65,0H18.35a8.15,8.15,0,0,0-8.14,8.15V185H3.5A3.5,3.5,0,0,0,0,188.5v10.25A18.27,18.27,0,0,0,18.25,217h252.5A18.27,18.27,0,0,0,289,198.75V188.5A3.5,3.5,0,0,0,285.5,185ZM17.21,8.15A1.14,1.14,0,0,1,18.35,7h252.3a1.14,1.14,0,0,1,1.14,1.15V185H17.21ZM120.38,192h48.24v1.58a4.92,4.92,0,0,1-4.91,4.92H125.29a4.92,4.92,0,0,1-4.91-4.92ZM282,198.75A11.26,11.26,0,0,1,270.75,210H18.25A11.25,11.25,0,0,1,7,198.75V192H115.38v1.58a9.93,9.93,0,0,0,9.91,9.92h38.42a9.93,9.93,0,0,0,9.91-9.92V192H282Z"/><path class="cls-8" d="M258.65,13H30.35a7.15,7.15,0,0,0-7.14,7.15V176.5a2.5,2.5,0,0,0,2.5,2.5H263.29a2.5,2.5,0,0,0,2.5-2.5V20.15A7.15,7.15,0,0,0,258.65,13ZM30.35,18h228.3a2.14,2.14,0,0,1,2.14,2.15V36.62H28.21V20.15A2.14,2.14,0,0,1,30.35,18ZM28.21,174V41.62H260.79V174Z"/><path class="cls-8" d="M216.65,32.17a5.06,5.06,0,1,0-5.05-5.06A5.07,5.07,0,0,0,216.65,32.17Zm0-8.11a3.06,3.06,0,1,1-3.05,3.05A3.06,3.06,0,0,1,216.65,24.06Z"/><path class="cls-8" d="M232.17,32.17a5.06,5.06,0,1,0-5-5.06A5.07,5.07,0,0,0,232.17,32.17Zm0-8.11a3.06,3.06,0,1,1-3,3.05A3.06,3.06,0,0,1,232.17,24.06Z"/><path class="cls-8" d="M247.69,32.17a5.06,5.06,0,1,0-5.05-5.06A5.06,5.06,0,0,0,247.69,32.17Zm0-8.11a3.06,3.06,0,1,1-3.05,3.05A3.06,3.06,0,0,1,247.69,24.06Z"/><path class="cls-8" d="M230.62,89.28,147.7,54.8a8.5,8.5,0,0,0-6.83,0L57.82,89.31a8.57,8.57,0,0,0,0,15.68l3,1.34v40.79A3.58,3.58,0,0,0,61,148a7.06,7.06,0,0,0-3.67,6.18v11.45a2,2,0,0,0,2,2H69.41a2,2,0,0,0,2-2V154.17A7.05,7.05,0,0,0,67.75,148a3.58,3.58,0,0,0,.12-.87V109.41L78,113.85v21.53a3.52,3.52,0,0,0,1.25,2.68,3.56,3.56,0,0,0,2.86.77c.35-.07,35.82-6.06,60.2,10.73a3.53,3.53,0,0,0,4,0c24.32-16.75,59.84-10.8,60.19-10.73a3.56,3.56,0,0,0,2.86-.77,3.52,3.52,0,0,0,1.25-2.68V113.85L230.68,105a8.57,8.57,0,0,0-.06-15.71ZM67.41,163.62H61.32v-9.45a3,3,0,1,1,6.09,0Zm136.13-48.9v7c-10.13-1.36-37.86-3.43-59.29,10.6-21.43-14-49.15-12-59.29-10.6v-7l50.26-13.53a34.79,34.79,0,0,1,18.06,0Zm0,16.65c-10.3-1.14-37.71-2.54-59.29,11.11-21.58-13.65-49-12.25-59.29-11.11v-5.61c9.3-1.25,37.58-3.58,58.16,10.6a2,2,0,0,0,1.13.35,2.06,2.06,0,0,0,1.14-.35c20.57-14.18,48.86-11.85,58.15-10.6v5.61Zm24.32-32.79-21.76,9.58-51-13.73a41.81,41.81,0,0,0-21.7,0l-51,13.73-16.67-7.34h0l-5.08-2.24a1.49,1.49,0,0,1-.93-1.43,1.47,1.47,0,0,1,.87-1.41l83-34.54a1.67,1.67,0,0,1,1.33,0l82.91,34.49a1.56,1.56,0,0,1,0,2.86Z"/></g></g></svg>