<svg xmlns="http://www.w3.org/2000/svg" viewBox="0 0 289.35 252.17"><defs><style>.cls-1{fill:#724433;}.cls-2{fill:#ffdcc4;}.cls-3{fill:#f2884c;}.cls-4{fill:#292929;}.cls-5{fill:#a97c50;}.cls-6{fill:#fff;}.cls-7{fill:#4c4c4c;}.cls-8{fill:#f66331;}.cls-9{fill:#dbdbdb;}.cls-10{fill:#f79a7f;}</style></defs><g id="Layer_2" data-name="Layer 2"><g id="object"><path class="cls-1" d="M100.64,19.06a67,67,0,0,0-66.2,77.21l132.09.93A57.78,57.78,0,0,0,167.61,86,67,67,0,0,0,100.64,19.06Z"/><path class="cls-2" d="M156,98.77c-23.11-9.58-36.92-28.19-36.92-28.19C85.57,97.74,45.31,98.77,45.31,98.77s-19.15,60.61,54.76,61.14h1.14C175.12,159.38,156,98.77,156,98.77Z"/><path class="cls-3" d="M100.64,162c-33,0-60.17,27.15-63.32,59.35l126.68.45C161.06,189.34,133.81,162,100.64,162Z"/><path class="cls-4" d="M100.64,130c-7.93,0-13.91-3.24-13.91-7.52a2,2,0,0,1,4,0c0,1.24,3.76,3.52,9.91,3.52s9.9-2.28,9.9-3.52a2,2,0,0,1,4,0C114.54,126.73,108.56,130,100.64,130Z"/><rect class="cls-5" x="3.85" y="223.68" width="282" height="24.99"/><ellipse class="cls-4" cx="73.92" cy="100.09" rx="5.52" ry="8.13"/><path class="cls-4" d="M132.87,100.09c0,4.49-2.47,8.13-5.52,8.13s-5.51-3.64-5.51-8.13S124.31,92,127.35,92,132.87,95.6,132.87,100.09Z"/><path class="cls-6" d="M134.67,167.84c-.4-.25-.8-.5-1.21-.74a47,47,0,0,0-24-6.42H89.93a47,47,0,0,0-24,6.42l-1.21.74c-3.18,2-4,5.54-2.06,8.35,3.29,4.76,10.91,12,28.35,17.91l8.7-15,8.69,15c17.44-5.93,25.06-13.15,28.35-17.91C138.68,173.38,137.85,169.85,134.67,167.84Z"/><path class="cls-2" d="M89.46,160a11.24,11.24,0,0,0,22.47,0Z"/><rect class="cls-7" x="27.12" y="89.2" width="14.24" height="43.98" rx="3.55"/><path class="cls-8" d="M22.32,130a18.83,18.83,0,0,1,0-37.65h4.8V130Z"/><rect class="cls-7" x="162.5" y="89.2" width="14.24" height="43.98" rx="3.55" transform="translate(339.24 222.39) rotate(180)"/><path class="cls-8" d="M181.53,130a18.83,18.83,0,1,0,0-37.65h-4.79V130Z"/><path class="cls-1" d="M48.82,131.94,30,135.1c-4.79,6.29-9.74,17.06-7.64,33.67a9.32,9.32,0,0,0,9.25,8.12h8.55a9.32,9.32,0,0,0,8.95-11.95C47,157.86,46.4,142.83,48.82,131.94Z"/><path class="cls-1" d="M162.5,128l-9.16,9.29a55.29,55.29,0,0,1-1.09,27.68,9.32,9.32,0,0,0,8.95,11.95h8.55a9.31,9.31,0,0,0,9.25-8.12C181.24,151.13,167.54,134.05,162.5,128Z"/><path class="cls-9" d="M277.65,3.5H201.27a6.2,6.2,0,0,0-6.2,6.2V62.3a6.2,6.2,0,0,0,6.2,6.2h24L215.45,90,247.53,68.5h30.12a6.21,6.21,0,0,0,6.2-6.2V9.7A6.21,6.21,0,0,0,277.65,3.5Z"/><circle class="cls-10" cx="70.66" cy="120.42" r="9.87"/><circle class="cls-10" cx="133.97" cy="120.42" r="9.87"/><path class="cls-4" d="M285.85,220.17H167.47a3.65,3.65,0,0,0,0-.74,67.26,67.26,0,0,0-26.09-47.2l-.16-.1a7.12,7.12,0,0,0-.13-.91,9.88,9.88,0,0,0-4.56-6.34l-1.29-.79a48.8,48.8,0,0,0-8.38-3.91c10.23-2.85,18.3-7.6,24.14-14.22a52.53,52.53,0,0,1-2.11,18,12.82,12.82,0,0,0,12.3,16.44h8.55a12.83,12.83,0,0,0,12.73-11.18c1.94-15.35-1.79-26.13-6.25-33.23a7,7,0,0,0,2.84-2.46h2.46a22.32,22.32,0,0,0,.34-44.64v-6.7a82.19,82.19,0,0,0-164.37,0V89.4a22.32,22.32,0,0,0,4.82,44.12h2.47a7.32,7.32,0,0,0,1.12,1.3c-4.64,6.86-9.09,18-7,34.39a12.82,12.82,0,0,0,12.72,11.18h8.55A12.82,12.82,0,0,0,52.48,164a52.5,52.5,0,0,1-2.13-17.89c5.63,6.33,13.33,10.94,23,13.81a48.85,48.85,0,0,0-9.24,4.22l-1.29.79a9.88,9.88,0,0,0-4.56,6.34,8.79,8.79,0,0,0-.14,2.4h0A66.63,66.63,0,0,0,33.84,219a3.24,3.24,0,0,0,.1,1.21H3.85a3.5,3.5,0,0,0-3.5,3.5v25a3.5,3.5,0,0,0,3.5,3.5h282a3.5,3.5,0,0,0,3.5-3.5v-25A3.5,3.5,0,0,0,285.85,220.17Zm-177-56a9.22,9.22,0,0,1-16.4,0ZM45.22,95.27a2.2,2.2,0,0,0-.36,0V92.76A7.07,7.07,0,0,0,37.8,85.7h-.63A63.47,63.47,0,0,1,164.11,86,7.06,7.06,0,0,0,159,92.76V97a3.51,3.51,0,0,0-1.68-1.48c-21.88-9.07-35.31-26.86-35.45-27a3.46,3.46,0,0,0-2.37-1.39,3.51,3.51,0,0,0-2.64.76C84.74,93.91,45.61,95.26,45.22,95.27Zm-14.6,34.36.05-36.93,7.19.06v36.87a.06.06,0,0,1-.06.05Zm142.57.05h-7.14l-.05-.05.05-36.93,7.19.06Zm2.34,38.65a5.81,5.81,0,0,1-5.78,5.06H161.2a5.81,5.81,0,0,1-5.59-7.46,59.12,59.12,0,0,0,1.3-28.71,43.52,43.52,0,0,0,2.34-5.74,7.07,7.07,0,0,0,6.8,5.2h2.1C172.72,142.41,177.54,152.45,175.53,168.33Zm21.33-57.14a15.35,15.35,0,0,1-15.33,15.33h-1.29V95.87h1.29A15.34,15.34,0,0,1,196.86,111.19ZM99.69,7a75.27,75.27,0,0,1,75.18,75.18v3.73a7.16,7.16,0,0,0-1.68-.21h-2.08a70.47,70.47,0,0,0-140.94,0,7.06,7.06,0,0,0-5.38,3.14H24.5V82.18A75.27,75.27,0,0,1,99.69,7ZM7,111.19A15.33,15.33,0,0,1,22.32,95.87h1.3v30.65h-1.3A15.34,15.34,0,0,1,7,111.19Zm37.84,59.87a5.8,5.8,0,0,1-4.67,2.33H31.62a5.82,5.82,0,0,1-5.78-5.06c-2-15.59,2.69-25.52,7-31.1a3.48,3.48,0,0,0,.33-.55H37.8a7.05,7.05,0,0,0,5.27-2.37c.41,1,.86,2,1.37,3a59.2,59.2,0,0,0,1.32,28.58A5.78,5.78,0,0,1,44.84,171.06Zm8.73-32.12c-9.65-13.22-6.91-30.64-5.51-36.82,9.41-.71,41.67-4.68,70.46-26.66,4.77,5.57,16.84,18.1,34.52,25.86,1.32,5.32,4.81,23.69-5.3,37.58-8.33,11.46-24,17.35-46.55,17.51a3.31,3.31,0,0,0-.55.05,3.29,3.29,0,0,0-.54-.05C77.56,156.25,61.91,150.37,53.57,138.94Zm11.56,33.67a3,3,0,0,1,1.44-1.81l1.12-.69a43.44,43.44,0,0,1,20.49-5.87,13.22,13.22,0,0,0,25,.11,43.12,43.12,0,0,1,18.52,5.76c.37.22.75.45,1.12.69h0a3,3,0,0,1,1.44,1.81,2,2,0,0,1-.39,1.59c-2.41,3.49-8.67,10-23.9,15.63l-7.23-12.53a3.51,3.51,0,0,0-6.07,0l-7.23,12.53c-15.23-5.64-21.49-12.14-23.9-15.63A2,2,0,0,1,65.13,172.61Zm-24.33,47a59.6,59.6,0,0,1,20.46-39.48c4.28,5.17,12.58,11.81,28.6,17.26A3.51,3.51,0,0,0,94,195.85l5.67-9.8,5.66,9.8a3.47,3.47,0,0,0,3,1.75,3.7,3.7,0,0,0,1.13-.18c17-5.8,25.34-12.93,29.37-18.23a60.25,60.25,0,0,1,21.63,40.87s0,.08,0,.11H40.7A4.15,4.15,0,0,0,40.8,219.64Zm241.55,25.53H7.35v-18h275Z"/><path class="cls-4" d="M201.27,72h18.58l-7.58,16.49a3.49,3.49,0,0,0,3.18,5,3.45,3.45,0,0,0,1.94-.59L248.59,72h29.06a9.71,9.71,0,0,0,9.7-9.7V9.7a9.71,9.71,0,0,0-9.7-9.7H201.27a9.71,9.71,0,0,0-9.7,9.7V62.3A9.71,9.71,0,0,0,201.27,72Zm-2.7-62.3a2.7,2.7,0,0,1,2.7-2.7h76.38a2.7,2.7,0,0,1,2.7,2.7V62.3a2.7,2.7,0,0,1-2.7,2.7H247.53a3.57,3.57,0,0,0-1.95.59L223.81,80.15,228.5,70a3.5,3.5,0,0,0-3.18-5h-24a2.7,2.7,0,0,1-2.7-2.7Z"/><path class="cls-4" d="M211.45,23.06h56.66a2,2,0,0,0,0-4H211.45a2,2,0,0,0,0,4Z"/><path class="cls-4" d="M211.45,35.06h56.66a2,2,0,0,0,0-4H211.45a2,2,0,1,0,0,4Z"/><path class="cls-4" d="M211.45,47.06h56.66a2,2,0,0,0,0-4H211.45a2,2,0,0,0,0,4Z"/></g></g></svg>