<svg xmlns="http://www.w3.org/2000/svg" viewBox="0 0 271.48 263.34"><defs><style>.cls-1{fill:#797979;}.cls-2{fill:#afdbd3;}.cls-3{fill:#dbdbdb;}.cls-4{fill:#292929;}.cls-5{font-size:60px;fill:#7f3f98;font-family:MicrosoftSansSerif, Microsoft Sans Serif;}</style></defs><g id="Layer_2" data-name="Layer 2"><g id="object"><polygon class="cls-1" points="175.06 243.84 101.06 243.84 106.06 205.59 170.06 205.59 175.06 243.84"/><rect class="cls-1" x="70.99" y="243.84" width="129.47" height="16" rx="5.07"/><rect class="cls-1" x="3.5" y="3.5" width="264.48" height="202.09" rx="10.8"/><rect class="cls-2" x="70.97" y="-32.88" width="129.54" height="233.39" rx="4.93" transform="translate(219.56 -51.93) rotate(90)"/><path class="cls-3" d="M2.49,167.15H268v26a12.47,12.47,0,0,1-12.47,12.47H15A12.48,12.48,0,0,1,2.54,193.14Z"/><circle class="cls-1" cx="135.74" cy="185.81" r="7.6"/><path class="cls-4" d="M257.18,0H14.3A14.32,14.32,0,0,0,0,14.3V194.78a14.32,14.32,0,0,0,14.3,14.31h87.77L98,240.34H76.06a8.57,8.57,0,0,0-8.57,8.56v5.87a8.58,8.58,0,0,0,8.57,8.57H195.39a8.59,8.59,0,0,0,8.57-8.57V248.9a8.58,8.58,0,0,0-8.57-8.56H178.13L174,209.09h83.14a14.32,14.32,0,0,0,14.3-14.31V14.3A14.32,14.32,0,0,0,257.18,0ZM14.3,7H257.18a7.31,7.31,0,0,1,7.3,7.3V165.15H7V14.3A7.32,7.32,0,0,1,14.3,7ZM197,248.9v5.87a1.58,1.58,0,0,1-1.57,1.57H76.06a1.57,1.57,0,0,1-1.57-1.57V248.9a1.56,1.56,0,0,1,1.57-1.56H195.39A1.57,1.57,0,0,1,197,248.9Zm-25.89-8.56H105l4.09-31.25H167Zm86.11-38.25H14.3A7.32,7.32,0,0,1,7,194.78V169.15H264.48v25.63A7.31,7.31,0,0,1,257.18,202.09Z"/><path class="cls-4" d="M135.74,176.21a9.6,9.6,0,1,0,9.6,9.6A9.62,9.62,0,0,0,135.74,176.21Zm0,15.2a5.6,5.6,0,1,1,5.6-5.6A5.6,5.6,0,0,1,135.74,191.41Z"/><text class="cls-5" transform="translate(92.34 100.78)"><tspan xml:space="preserve">{   }</tspan></text></g></g></svg>